<svg width="512" height="512" xmlns="http://www.w3.org/2000/svg">

 <g>
  <title>background</title>
  <rect fill="none" id="canvas_background" height="402" width="582" y="-1" x="-1"/>
 </g>
 <g>
  <title>Layer 1</title>
  <path fill="#eff0eb" id="svg_1" d="m218.206,426.462c-5.007,0 -9.048,4.041 -9.048,9.049l0,54.29c0,5.007 4.041,9.048 9.048,9.048c5.007,0 9.048,-4.041 9.048,-9.048l0,-54.29c0,-5.008 -4.041,-9.049 -9.048,-9.049"/>
  <path fill="#eff0eb" id="svg_2" d="m290.593,426.462c-5.008,0 -9.049,4.041 -9.049,9.049l0,54.29c0,5.007 4.041,9.048 9.049,9.048c5.007,0 9.048,-4.041 9.048,-9.048l0,-54.29c0,-5.008 -4.041,-9.049 -9.048,-9.049"/>
  <path fill="#eff0eb" stroke="#eff0eb" stroke-opacity="0" stroke-width="0" id="svg_3" d="m453.462,127.868l0,-18.097c0,-59.721 -49.577,-108.58 -110.135,-108.58l-88.928,0l-88.928,0c-60.563,0 -110.135,48.858 -110.135,108.58l0,18.097l199.062,0l199.064,0z"/>
  <path fill="#eff0eb" stroke-width="0" id="svg_4" d="m471.559,272.641l0,-90.483c0,0 0,-18.097 -18.097,-18.097l0,-18.097l-199.063,0l-199.063,0l0,18.097c-18.097,0 -18.097,18.097 -18.097,18.097l0,90.483c-22.957,10.156 -36.193,29.112 -36.193,54.29c0,33.637 53.913,80.764 53.913,90.483c0,54.29 37.524,90.482 92.262,90.482c20.011,0 38.373,-6.338 53.142,-16.836c-0.036,-0.447 -0.253,-0.812 -0.253,-1.26l0,-54.29c0,-9.991 8.129,-18.097 18.097,-18.097c8.07,0 14.68,5.407 17.001,12.735l1.096,0l0,-3.688c0,-9.99 8.129,-18.097 18.096,-18.097s18.097,8.106 18.097,18.097l0,3.688l1.096,0c2.32,-7.328 8.93,-12.735 17.001,-12.735c9.967,0 18.097,8.105 18.097,18.097l0,54.29c0,0.447 -0.213,0.812 -0.26,1.26c14.774,10.498 33.13,16.836 53.147,16.836c54.737,0 92.262,-36.192 92.262,-90.482c0,-9.72 53.913,-56.847 53.913,-90.483c-0.001,-25.178 -13.232,-44.134 -36.194,-54.29m-334.788,199.063c-14.986,0 -27.145,-12.159 -27.145,-27.146s12.159,-27.145 27.145,-27.145s27.145,12.158 27.145,27.145s-12.159,27.146 -27.145,27.146m27.145,-126.677l-31.027,0c-3.004,0 -5.167,-1.626 -5.167,-3.617c0,-2.003 2.162,-4.064 5.167,-4.665l31.027,-9.814l0,18.096zm54.29,-22.809c-10.568,4.383 -20.789,9.814 -30.827,14.751c-1.614,0.801 -3.535,1.402 -5.367,2.038l0,-25.083c12.848,-11.052 24.323,-18.627 36.193,-23.599l0,31.893l0.001,0zm-90.483,-67.674c-36.193,0 -36.193,-72.386 -36.193,-72.386l144.773,0c0,0 -72.387,72.386 -108.58,72.386m144.773,61.642c-5.903,-1.413 -11.911,-2.262 -18.097,-2.262c-6.191,0 -12.2,0.849 -18.096,2.262l0,-31.351c5.731,-1.131 11.705,-1.838 18.096,-2.109c6.398,0.271 12.371,0.979 18.097,2.109l0,31.351zm54.29,22.821c-1.839,-0.636 -3.747,-1.237 -5.373,-2.038c-10.038,-4.937 -20.253,-10.368 -30.82,-14.751l0,-31.893c11.876,4.972 23.339,12.547 36.193,23.599l0,25.083zm45.241,132.697c-14.986,0 -27.146,-12.159 -27.146,-27.146s12.159,-27.145 27.146,-27.145s27.145,12.158 27.145,27.145s-12.158,27.146 -27.145,27.146m-27.145,-126.677l0,-18.097l31.033,9.814c3.005,0.601 5.16,2.662 5.16,4.665c0,1.991 -2.155,3.617 -5.16,3.617l-31.033,0l0,0.001zm36.193,-90.483c-36.193,0 -108.579,-72.386 -108.579,-72.386l144.772,0c0.001,0 0.001,72.386 -36.193,72.386"/>
  <path fill="#eff0eb" id="svg_5" d="m254.399,417.414c-5.007,0 -9.048,4.041 -9.048,9.048l0,72.387c0,5.007 4.042,9.048 9.048,9.048c5.007,0 9.048,-4.041 9.048,-9.048l0,-72.387c0,-5.007 -4.041,-9.048 -9.048,-9.048"/>
 </g>
</svg>